<svg width="54" height="54" viewBox="0 0 54 54" fill="none" xmlns="http://www.w3.org/2000/svg">
<path fill-rule="evenodd" clip-rule="evenodd" d="M27 0C41.9017 0 54 12.0982 54 27C54 41.9017 41.9017 54 27 54C12.0982 54 0 41.9017 0 27C0 12.0982 12.0982 0 27 0ZM45.2858 43.6725C44.6513 42.7703 43.5488 42.201 41.6318 41.76C32.9738 39.7215 32.4135 38.3828 31.8398 37.1273C31.257 35.856 31.4122 34.3597 32.301 32.679C36.1845 25.3507 37.0035 19.125 34.6118 15.1515C33.0953 12.6338 30.393 11.25 27 11.25C23.5777 11.25 20.853 12.6585 19.3298 15.2168C16.9312 19.242 17.7705 25.4408 21.69 32.67C22.5945 34.3395 22.761 35.8335 22.185 37.1115C21.5887 38.43 20.8102 39.789 12.3637 41.76C10.4467 42.201 9.34425 42.7703 8.712 43.668C13.239 48.6338 19.7595 51.75 27 51.75C34.2405 51.75 40.7588 48.6338 45.2858 43.6725ZM46.7483 41.913C49.887 37.764 51.75 32.598 51.75 27C51.75 13.3403 40.6598 2.25 27 2.25C13.3403 2.25 2.25 13.3403 2.25 27C2.25 32.5957 4.11075 37.7617 7.2495 41.9085C8.16975 40.8915 9.60975 40.086 11.8597 39.5662C16.416 38.5267 19.4557 37.6853 20.1353 36.1868C20.4097 35.5748 20.2725 34.7738 19.7122 33.741C15.399 25.7873 14.5778 18.7987 17.3948 14.0647C19.314 10.845 22.8127 9 27 9C31.1512 9 34.6297 10.818 36.54 13.9905C39.3548 18.6682 38.556 25.6792 34.29 33.732C33.7388 34.7738 33.606 35.5793 33.8872 36.1935C34.5735 37.6965 37.5863 38.529 42.138 39.5662C44.388 40.0837 45.828 40.8938 46.7483 41.913Z" fill="#8E8994"/>
</svg>
