<svg width="103" height="23" viewBox="0 0 103 23" fill="none" xmlns="http://www.w3.org/2000/svg">
<path d="M25.1 7.1C24.9 7.1 24.8 7.1 24.6 7.1C23.4 7.1 22.1 7.1 20.9 7.2C19.5 7.3 18.4 8.2 18.1 9.5C17.9 10.1 17.8 10.8 17.8 11.5C17.8 13.5 17.8 15.4 17.8 17.4C17.8 17.5 17.8 17.6 17.8 17.7C16.5 17.7 15.3 17.7 14 17.7C14 13.1 14 8.6 14 4C15.2 4 16.4 4 17.6 4C17.6 4.8 17.6 5.7 17.6 6.6C17.7 6.5 17.7 6.5 17.8 6.4C18.6 4.8 19.9 3.9 21.7 3.8C22.7 3.7 23.8 3.7 24.8 3.7C24.9 3.7 25 3.7 25.2 3.7C25.2 2.4 25.2 1.2 25.2 0C26.5 0 27.8 0 29 0C29 1.2 29 2.5 29 3.7C29.9 3.7 30.9 3.7 31.8 3.7C31.8 4.9 31.8 6 31.8 7.2C30.9 7.2 30 7.2 29 7.2C29 7.3 29 7.5 29 7.6C29 9.7 29 11.7 29 13.8C29 14 29 14.3 29.1 14.5C29.2 15 29.4 15.3 29.9 15.3C30.4 15.3 31 15.3 31.5 15.3C31.6 15.3 31.7 15.3 31.8 15.3C31.8 16.3 31.8 17.2 31.8 18.2C31.5 18.2 31.1 18.3 30.8 18.3C29.7 18.4 28.6 18.4 27.5 18.1C26.1 17.8 25.2 16.8 25.2 15.3C25.2 13 25.2 10.7 25.2 8.4C25.1 7.9 25.1 7.5 25.1 7.1Z" fill="#8E8994"/>
<path d="M46 4C47.2 4 48.4 4 49.6 4C49.6 4.6 49.6 5.1 49.6 5.7C49.7 5.6 49.7 5.6 49.8 5.5C50.8 4 52.3 3.5 54 3.5C57 3.5 59 5.4 59.7 7.9C60.4 10.3 60.4 12.7 59.3 15C57.6 18.4 53.8 18.8 51.6 17.5C51.1 17.2 50.7 16.7 50.2 16.3C50.1 16.2 50 16.1 49.9 16C49.9 18.2 49.9 20.4 49.9 22.6C48.6 22.6 47.4 22.6 46.1 22.6C46 16.5 46 10.2 46 4ZM56.3 11C56.2 10.3 56.1 9.6 55.9 8.9C55.4 7.3 54.3 6.5 52.8 6.5C51.4 6.5 50.3 7.4 49.8 8.9C49.4 10.4 49.4 11.9 49.9 13.3C50.3 14.5 51.4 15.3 52.7 15.3C54.1 15.3 55.2 14.7 55.7 13.5C56.2 12.7 56.2 11.8 56.3 11Z" fill="#8E8994"/>
<path d="M102.9 11.8C99.5001 11.8 96.2001 11.8 92.8001 11.8C92.7001 13.1 93.3001 14.6 94.5001 15C95.9001 15.5 97.2001 15.5 98.4001 14.6C98.7001 14.4 98.9001 14 99.2001 13.7C99.3001 13.6 99.4001 13.5 99.5001 13.5C100.5 13.5 101.6 13.5 102.6 13.5C102.6 13.5 102.6 13.5 102.7 13.5C102 16.1 99.9001 17.9 97.2001 18.1C95.4001 18.3 93.7001 18 92.1001 17C90.4001 15.9 89.5001 14.3 89.2001 12.4C89.1001 11.7 89.1001 10.9 89.1001 10.2C89.1001 10 89.2001 9.80001 89.3001 9.60001C91.3001 7.60001 93.3001 5.60001 95.3001 3.60001C95.3001 3.60001 95.5001 3.50001 95.7001 3.50001C99.5001 3.30001 101.9 5.60001 102.7 9.00001C102.8 10 103 10.8 102.9 11.8ZM99.0001 9.30001C98.9001 7.50001 97.6001 6.30001 95.9001 6.30001C94.1001 6.40001 92.8001 7.60001 92.8001 9.30001C94.8001 9.30001 96.9001 9.30001 99.0001 9.30001Z" fill="#8E8994"/>
<path d="M61 8.2C61 6.3 62.2 4.8 64.1 4.1C65.5 3.6 67 3.5 68.5 3.6C69.4 3.7 70.4 3.8 71.2 4.2C72.8 4.8 73.5 5.9 73.5 7.6C73.5 8.9 73.5 10.3 73.5 11.6C73.5 11.7 73.4 11.9 73.3 12C71.4 13.9 69.4 15.9 67.5 17.8C67.4 17.9 67.3 18 67.2 18C65.8 18.3 64.3 18.4 63 17.9C61.3 17.3 60.4 15.8 60.5 13.9C60.6 12 61.5 10.9 63.3 10.4C64.3 10.1 65.4 10 66.4 9.8C67.1 9.7 67.8 9.6 68.5 9.5C68.6 9.5 68.7 9.4 68.8 9.4C69.5 9.1 69.8 8.8 69.8 8.1C69.8 7.2 69.5 6.7 68.8 6.4C67.9 6.1 67 6.1 66.1 6.4C65.4 6.7 65 7.2 64.8 8C64.8 8.1 64.8 8.3 64.6 8.3C63.5 8.2 62.3 8.2 61 8.2ZM69.9 11.1H69.8C69.1 11.6 68.3 11.6 67.5 11.7C66.7 11.8 65.9 11.9 65.2 12.4C64.5 12.9 64.4 13.6 64.5 14.3C64.6 15 65.1 15.4 65.8 15.6C66.5 15.8 67.2 15.8 67.9 15.6C68.9 15.3 69.6 14.7 69.7 13.7C69.8 12.8 69.8 12 69.9 11.1Z" fill="#8E8994"/>
<path d="M0.5 8.10001C0.6 6.80001 1.1 5.60001 2.2 4.80001C3 4.20001 4 3.80001 5.1 3.70001C6.8 3.40001 8.6 3.50001 10.2 3.90001C10.6 4.00001 11 4.20001 11.4 4.40001C12.4 5.00001 13 5.90001 13.1 7.10001C13.1 8.60001 13.1 10.1 13.1 11.6C13.1 11.7 13 11.9 12.9 11.9C11.7 13.1 10.5 14.3 9.4 15.4C8.7 16.1 7.9 16.9 7.2 17.6C7.1 17.7 7 17.7 6.9 17.8C5.4 18.2 3.8 18.2 2.3 17.6C1.2 17.1 0.5 16.3 0.2 15.1C4.47035e-08 14.7 0 14.2 0 13.7C0.1 12.4 0.6 11.3 1.8 10.6C2.7 10.1 3.8 9.90001 4.8 9.70001C5.8 9.50001 6.9 9.40001 7.9 9.20001C8.1 9.20001 8.3 9.10001 8.5 9.00001C9.1 8.70001 9.3 8.10001 9.2 7.50001C9.1 6.90001 8.8 6.40001 8.2 6.20001C7.4 5.90001 6.5 5.90001 5.7 6.20001C4.9 6.40001 4.4 7.00001 4.3 7.90001C4.3 8.10001 4.2 8.20001 4 8.20001C2.9 8.20001 1.7 8.20001 0.6 8.20001C0.6 8.10001 0.5 8.10001 0.5 8.10001ZM9.3 11.1C8.8 11.3 8.4 11.4 8 11.5C7.6 11.6 7.2 11.6 6.7 11.7C5.9 11.8 5.2 11.9 4.5 12.4C3.8 12.9 3.7 13.5 3.8 14.3C3.9 15 4.3 15.4 5 15.6C5.5 15.5 6 15.6 6.5 15.6C8 15.6 9 14.8 9.2 13.4C9.3 12.6 9.3 11.8 9.3 11.1Z" fill="#8E8994"/>
<path d="M88.0999 8.79999C87.5999 8.79999 87.0999 8.79999 86.5999 8.79999C85.8999 8.79999 85.2999 8.79999 84.5999 8.79999C84.3999 8.79999 84.2999 8.79999 84.2999 8.59999C83.9999 7.29999 83.1999 6.59999 82.0999 6.39999C80.5999 6.19999 79.4999 6.79999 78.8999 7.89999C78.2999 8.99999 78.1999 10.2 78.1999 11.4C78.1999 12.2 78.3999 12.9 78.6999 13.6C79.2999 14.9 80.3999 15.4 81.7999 15.3C82.9999 15.2 83.8999 14.3 84.2999 13.1C84.4999 12.5 84.4999 12.5 85.0999 12.5C86.0999 12.5 87.0999 12.5 88.0999 12.5C88.0999 12.5 88.0999 12.5 88.1999 12.5C88.0999 13.5 87.7999 14.4 87.2999 15.2C86.5999 16.4 85.4999 17.3 84.1999 17.7C82.2999 18.3 80.3999 18.4 78.5999 17.6C76.0999 16.6 74.8999 14.7 74.4999 12.1C74.2999 10.3 74.4999 8.59999 75.2999 6.99999C76.3999 4.89999 78.1999 3.79999 80.4999 3.49999C82.0999 3.29999 83.6999 3.49999 85.1999 4.29999C86.9999 5.29999 87.8999 6.69999 88.0999 8.79999Z" fill="#8E8994"/>
<path d="M41.1 7.9C41.1 7.8 41.1 7.8 41.1 7.7C41 6.9 40.5 6.4 39.7 6.2C38.9 6 38 6 37.2 6.2C36.7 6.3 36.4 6.6 36.3 7.1C36.2 7.6 36.5 8 36.9 8.3C37.6 8.7 38.3 8.8 39 9C40.2 9.3 41.4 9.6 42.6 10C43.7 10.4 44.6 11.1 44.9 12.4C45.3 14.1 44.8 16.2 42.7 17.3C41.3 18 39.7 18.2 38.1 18.2C36.8 18.1 35.5 17.9 34.3 17.2C32.8 16.3 32.1 15 32 13.3C32.1 13.3 32.2 13.3 32.3 13.3C33.3 13.3 34.3 13.3 35.3 13.3C35.5 13.3 35.6 13.4 35.7 13.6C35.8 14.5 36.3 15.1 37.1 15.4C38.1 15.8 39 15.8 40 15.4C40.6 15.2 41 14.7 41.1 14C41.1 13.5 40.9 13.1 40.5 12.9C39.8 12.6 39 12.3 38.2 12.1C37.1 11.8 36 11.6 35 11.3C34.1 11 33.3 10.5 32.8 9.7C32.7 9.5 32.7 9.3 32.9 9.1C34.7 7.3 36.5 5.6 38.3 3.8C38.5 3.6 38.6 3.5 38.7 3.5C40.2 3.5 41.6 3.7 42.9 4.5C44.1 5.3 44.6 6.4 44.8 7.8V7.9C43.5 7.9 42.3 7.9 41.1 7.9Z" fill="#8E8994"/>
</svg>
