<svg width="97" height="29" viewBox="0 0 97 29" fill="none" xmlns="http://www.w3.org/2000/svg">
<path d="M0 26.2C0 17.5 0 8.7 0 0C32.2 0 64.4 0 96.6 0C96.6 8.7 96.6 17.4 96.6 26.2C96.5 26.2 96.5 26.2 96.4 26.2C94.6 26.2 92.8 26.2 91 26.2C90.9 26.2 90.8 26.2 90.7 26.3C90.1 27 89.3 27.4 88.5 27.7C87.7 28 86.8 28.1 85.9 28.2C84.8 28.3 83.7 28.3 82.5 28.2C81.5 28.1 80.5 28 79.6 27.5C79.3 27.4 79.1 27.2 78.8 27C78.5 26.8 78.4 26.5 78.2 26.2C78.2 26.1 78.1 26.1 78.1 26.1C78 26.1 78 26.1 77.9 26.1C52 26.1 26 26.1 0.0999999 26.1C0.2 26.2 0.1 26.2 0 26.2ZM81.7 24.3C81.7 24.5 81.6 24.7 81.6 24.9C81.6 25.1 81.6 25.3 81.5 25.5C81.4 26.5 81.9 27.3 82.9 27.6C83.4 27.8 83.9 27.8 84.5 27.9C85.5 27.9 86.4 27.9 87.3 27.5C88.2 27.1 88.9 26.5 89 25.4C89.1 24.4 88.8 23.9 87.8 23.7C87.3 23.6 86.9 23.5 86.4 23.5C85.4 23.5 84.3 23.5 83.3 23.5C82.7 23.5 82.1 23.5 81.5 23.3C81 23.2 80.5 23 80.1 22.6C79.4 22 79.3 21.2 79.5 20.3C79.7 19.7 80 19.2 80.5 18.9C81 18.5 81.6 18.2 82.1 17.8L82.2 17.7C82 17.6 81.8 17.5 81.6 17.5C80.6 17.1 79.9 16.5 79.5 15.4C79.2 14.5 79.2 13.5 79.4 12.5C79.8 11.3 80.6 10.5 81.8 10C82.9 9.6 84 9.5 85.1 9.5C86 9.5 86.8 9.7 87.6 10.1V10C87.5 9.5 87.4 8.9 87.5 8.4C87.6 7.8 87.8 7.3 88.2 6.9C88.9 6.2 90.1 6 91 6.4C91.5 6.6 91.8 7 91.9 7.5C92 7.8 92 8 92 8.3C92 9 91.6 9.5 90.9 9.6C90.7 9.7 90.4 9.7 90.1 9.7C89.5 9.7 89 9.2 88.9 8.6C88.9 8.5 88.9 8.4 89 8.3C89.2 8.2 89.3 8.1 89.5 8C89.5 8 89.6 8 89.6 7.9C89.8 7.7 89.6 7.3 89.3 7.2C88.9 7.1 88.5 7.2 88.3 7.5C88.2 7.7 88.1 7.9 88 8.1C87.9 8.7 87.9 9.2 88 9.8C88 10.2 88.1 10.5 88.5 10.7C89.2 11.1 89.7 11.8 89.9 12.5C90.1 13.1 90.1 13.7 90 14.3C89.9 15.4 89.4 16.3 88.5 17C87.8 17.5 87 17.8 86.2 17.9C85.1 18.1 84 18 82.9 17.8C82.8 17.8 82.7 17.8 82.7 17.8C82.4 18 82.2 18.2 81.9 18.4C81.8 18.5 81.7 18.6 81.7 18.7C81.6 18.9 81.7 19 81.8 19.1C81.9 19.2 82.1 19.2 82.3 19.2C82.7 19.2 83.1 19.2 83.4 19.2C84.6 19.2 85.8 19.2 87 19.3C87.8 19.3 88.5 19.5 89.3 19.8C90.4 20.2 91.1 20.9 91.5 22C91.7 22.8 91.8 23.6 91.6 24.4C91.6 24.7 91.5 24.9 91.4 25.1C92.8 25.1 94.1 25.1 95.5 25.1C95.5 17.1 95.5 9.1 95.5 1.1C64 1.1 32.5 1.1 1 1.1C1 9.1 1 17.1 1 25.2C1.1 25.2 1.2 25.2 1.2 25.2C26.8 25.2 52.4 25.2 77.9 25.2H78C78.1 25.2 78.1 25.2 78.2 25.1C78.3 24.9 78.4 24.7 78.6 24.5C78.9 24.1 79.3 23.9 79.8 23.8H79.9C80.2 23.9 80.4 24.1 80.7 24.2C81.1 24.1 81.4 24.2 81.7 24.3ZM83.5 13.8C83.5 13.8 83.6 13.8 83.5 13.8C83.6 14.4 83.5 14.9 83.6 15.5C83.6 16 83.7 16.5 83.9 16.9C84.1 17.3 84.4 17.5 84.8 17.5C85.2 17.5 85.5 17.3 85.6 16.9C85.7 16.5 85.8 16.2 85.8 15.8C85.9 14.4 85.9 12.9 85.8 11.5C85.8 11.1 85.7 10.8 85.5 10.4C85.4 10.2 85.2 10 84.9 9.9C84.4 9.8 84 10 83.8 10.5C83.6 10.9 83.5 11.3 83.5 11.8C83.6 12.5 83.5 13.1 83.5 13.8Z" fill="#8E8994"/>
<path d="M4.6001 21.9C4.6001 21.7 4.6001 21.6 4.6001 21.4C4.7001 21.4 4.7001 21.4 4.8001 21.4C5.2001 21.4 5.7001 21.4 6.1001 21.4C6.2001 21.4 6.3001 21.4 6.3001 21.2C6.3001 16.1 6.3001 10.9 6.3001 5.80001C6.3001 5.40001 6.3001 5.00001 6.3001 4.60001C6.3001 4.50001 6.3001 4.50001 6.3001 4.40001C5.7001 4.40001 5.2001 4.40001 4.6001 4.40001C4.6001 4.20001 4.6001 4.10001 4.6001 3.90001H4.7001C7.4001 3.90001 10.1001 3.90001 12.8001 3.90001C14.0001 3.90001 15.2001 4.00001 16.3001 4.30001C17.0001 4.50001 17.7001 4.80001 18.2001 5.30001C18.8001 5.80001 19.1001 6.50001 19.2001 7.30001C19.3001 8.10001 19.3001 9.00001 18.9001 9.80001C18.5001 10.7 17.8001 11.3 17.0001 11.7C16.4001 12 15.8001 12.1 15.2001 12.2H15.1001C15.1001 12.2 15.1001 12.2 15.0001 12.2C15.2001 12.2 15.3001 12.3 15.5001 12.3C16.4001 12.4 17.3001 12.7 18.1001 13.1C19.2001 13.7 19.9001 14.5 20.1001 15.8C20.3001 17 20.2001 18.3 19.5001 19.3C19.0001 20.1 18.2001 20.6 17.4001 20.9C16.6001 21.2 15.7001 21.4 14.8001 21.5C13.8001 21.6 12.8001 21.6 11.8001 21.6C9.5001 21.6 7.1001 21.6 4.8001 21.6C4.7001 21.9 4.7001 21.9 4.6001 21.9ZM11.2001 21.4C11.3001 21.4 11.3001 21.4 11.2001 21.4C11.8001 21.4 12.2001 21.4 12.7001 21.4C13.5001 21.3 14.1001 21 14.5001 20.2C14.7001 19.7 14.9001 19.1 14.9001 18.5C14.9001 17.6 14.9001 16.7 14.9001 15.8C14.9001 15.5 14.8001 15.1 14.8001 14.8C14.6001 13.9 14.0001 13.2 13.0001 13C12.6001 12.9 12.2001 12.9 11.7001 12.9C11.5001 12.9 11.3001 12.9 11.2001 12.9C11.2001 15.7 11.2001 18.5 11.2001 21.4ZM11.2001 12.3C11.6001 12.3 12.0001 12.3 12.3001 12.3C13.1001 12.2 13.6001 11.8 13.9001 11.1C14.1001 10.7 14.2001 10.2 14.2001 9.80001C14.2001 9.10001 14.2001 8.30001 14.2001 7.60001C14.2001 7.00001 14.2001 6.40001 14.0001 5.80001C13.8001 5.20001 13.5001 4.80001 12.9001 4.60001C12.3001 4.40001 11.8001 4.50001 11.2001 4.50001C11.2001 7.10001 11.2001 9.70001 11.2001 12.3Z" fill="#8E8994"/>
<path d="M41.0001 22.1C40.2001 22.1 39.2001 22 38.3001 21.7C36.7001 21.1 35.6001 20 35.1001 18.3C34.6001 16.7 34.6001 15 35.1001 13.4C35.7001 11.5 37.0001 10.3 38.9001 9.80001C39.8001 9.50001 40.8001 9.40001 41.7001 9.50001C42.5001 9.50001 43.3001 9.60001 44.1001 9.90001C45.9001 10.5 47.0001 11.7 47.5001 13.6C47.7001 14.6 47.8001 15.7 47.7001 16.7C47.6001 17.5 47.5001 18.2 47.2001 19C46.6001 20.6 45.4001 21.5 43.8001 22C43.0001 22 42.1001 22.1 41.0001 22.1ZM42.8001 15.9C42.8001 15.4 42.8001 14.8 42.8001 14.3C42.8001 13.5 42.7001 12.6 42.7001 11.8C42.7001 11.4 42.6001 11 42.4001 10.6C42.2001 10.3 42.0001 10.1 41.7001 10C41.1001 9.80001 40.5001 10.1 40.2001 10.8C40.0001 11.2 39.9001 11.7 39.9001 12.2C39.9001 13 39.8001 13.8 39.8001 14.6C39.8001 16.2 39.8001 17.8 39.9001 19.4C39.9001 19.9 40.0001 20.5 40.2001 21C40.5001 21.8 41.2001 21.9 41.9001 21.8C42.3001 21.7 42.6001 21.3 42.7001 20.9C42.9001 20.4 42.9001 19.8 43.0001 19.3C42.8001 18 42.8001 17 42.8001 15.9Z" fill="#8E8994"/>
<path d="M27.5999 22.1C26.5999 22.1 25.6999 22 24.6999 21.7C22.9999 21.1 21.8999 20 21.3999 18.3C20.8999 16.7 20.8999 15.1 21.3999 13.5C21.9999 11.5 23.2999 10.3 25.2999 9.80001C26.3999 9.50001 27.4999 9.40001 28.5999 9.50001C29.2999 9.60001 30.0999 9.70001 30.7999 9.90001C32.3999 10.5 33.2999 11.6 33.7999 13.2C33.9999 14 34.0999 14.9 34.0999 15.7C34.0999 16.6 33.9999 17.6 33.6999 18.5C33.0999 20.3 31.8999 21.3 30.0999 21.8C29.1999 22.1 28.3999 22.1 27.5999 22.1ZM29.1999 15.9C29.1999 15.4 29.1999 14.9 29.1999 14.4C29.1999 13.5 29.1999 12.5 28.9999 11.6C28.8999 11.3 28.7999 10.9 28.6999 10.6C28.5999 10.3 28.2999 10.1 27.9999 10C27.3999 9.90001 26.8999 10.1 26.5999 10.6C26.4999 10.7 26.4999 10.9 26.3999 11C26.1999 11.6 26.0999 12.2 26.0999 12.8C26.0999 13.9 26.0999 15 26.0999 16C26.0999 17.1 26.0999 18.2 26.1999 19.3C26.1999 19.8 26.2999 20.4 26.4999 20.8C26.7999 21.6 27.4999 21.7 28.1999 21.5C28.5999 21.4 28.8999 21 28.9999 20.6C29.1999 20.1 29.1999 19.5 29.2999 18.9C29.0999 18 29.0999 17 29.1999 15.9Z" fill="#8E8994"/>
<path d="M64.1001 21.4C64.6001 21.4 65 21.4 65.5 21.4C65.5 21.6 65.5 21.7 65.5 21.8C63 21.8 60.5 21.8 57.9 21.8C57.9 21.7 57.9 21.5 57.9 21.4C58.4 21.4 58.8 21.4 59.3 21.4C59.3 15.3 59.3 9.20001 59.3 3.10001C58.8 3.10001 58.3 3.10001 57.8 3.10001C57.8 2.90001 57.8 2.80001 57.8 2.60001C59.9 2.60001 62.0001 2.60001 64.1001 2.60001C64.1001 9.00001 64.1001 15.2 64.1001 21.4Z" fill="#8E8994"/>
<path d="M49.4 10.2C48.9 10.2 48.5 10.2 48 10.2C48 10 48 9.9 48 9.7C48.5 9.7 48.9 9.7 49.4 9.7C49.4 9.6 49.4 9.6 49.4 9.5C49.4 8.5 49.4 7.5 49.4 6.6C49.4 6.5 49.4 6.4 49.6 6.4C51.1 6 52.6 5.7 54 5.3H54.1C54.1 6.8 54.1 8.3 54.1 9.8C55.2 9.8 56.3 9.8 57.4 9.8C57.4 10 57.4 10.1 57.4 10.3C56.3 10.3 55.2 10.3 54.1 10.3C54.1 10.4 54.1 10.4 54.1 10.5C54.1 13.3 54.1 16.1 54.1 18.9C54.1 19.4 54.1 19.9 54.2 20.4C54.4 21.2 54.9 21.5 55.7 21.3C56.1 21.2 56.5 20.9 56.7 20.6C57.1 20.1 57.3 19.5 57.4 18.8C57.4 18.7 57.4 18.6 57.4 18.5C57.5 18.5 57.7 18.5 57.8 18.5C57.7 18.8 57.7 19.1 57.6 19.4C57.4 20.1 57.2 20.7 56.7 21.2C56.2 21.8 55.5 22.1 54.7 22.2C53.8 22.2 52.8 22.2 51.8 21.9C50.5 21.6 49.8 20.7 49.6 19.4C49.5 19 49.5 18.6 49.5 18.2C49.5 15.6 49.5 13 49.5 10.3C49.4 10.3 49.4 10.3 49.4 10.2Z" fill="#8E8994"/>
<path d="M70.8 15.3C70.8 15.7 70.8 16.1 70.8 16.5C70.8 17.4 70.8 18.3 71.1 19.2C71.2 19.4 71.2 19.6 71.3 19.8C71.7 20.7 72.3 21.2 73.3 21.3C74.4 21.4 75.4 21.2 76.2 20.5C76.8 20 77.2 19.4 77.4 18.7C77.5 18.5 77.5 18.4 77.6 18.2C77.7 18.2 77.9 18.2 78.1 18.3C78 18.6 77.9 19 77.7 19.3C77.1 20.7 76.1 21.6 74.6 21.9C73 22.3 71.3 22.2 69.8 21.7C68 21.1 66.8 19.9 66.3 18C65.9 16.5 65.9 14.9 66.4 13.4C67 11.5 68.3 10.4 70.1 9.80001C71.2 9.50001 72.3 9.40001 73.5 9.50001C74.2 9.60001 74.8 9.70001 75.5 9.90001C76.9 10.5 77.7 11.5 78 12.9C78.2 13.6 78.2 14.4 78.2 15.1C78.2 15.2 78.1 15.2 78 15.2C76.8 15.2 75.6 15.2 74.4 15.2C73.3 15.2 72.2 15.2 71.2 15.2C71 15.3 70.9 15.3 70.8 15.3ZM73.5 14.8C73.5 14.7 73.5 14.7 73.5 14.8C73.5 13.7 73.5 12.7 73.4 11.7C73.4 11.3 73.3 10.9 73.1 10.5C73 10.3 72.8 10.1 72.5 10C71.9 9.90001 71.5 10 71.2 10.5C71.1 10.6 71.1 10.7 71 10.8C70.8 11.3 70.8 11.8 70.7 12.3C70.7 13.1 70.7 13.9 70.7 14.6V14.7C71.8 14.8 72.6 14.8 73.5 14.8Z" fill="#8E8994"/>
</svg>
