<svg width="1170" height="300" viewBox="0 0 1170 300" fill="none" xmlns="http://www.w3.org/2000/svg">
<path d="M1188 -31.8681C1186.56 26.6531 1104.96 98.7728 991.741 123.861C850.219 155.221 755.511 205.88 688.891 245.013C614.709 288.589 300.335 416.289 183.66 224.911C90.3203 71.8083 81.6298 273.693 88.9519 393.774L417.73 412C415.209 321.85 489.247 160.153 805.566 234.56C1121.88 308.967 1182.24 249.302 1172.88 210.169M1167.11 -83.0631C1173.84 -15.786 1201.32 100.006 1081.77 171.839C982.68 231.376 627.673 253.591 625.512 412M1109.86 -97.269C1117.78 27.0999 907.404 132.545 754.431 108.315C563.213 78.0268 486.871 -13.9097 242.718 13.9661C47.3955 36.2667 -12.4784 177.29 -18 245.013L68.7859 -149L424.212 -66.1768C473.547 -19.5385 595.125 71.3258 688.891 71.3258C834.735 71.3258 891.031 -34.7272 933.764 -97.269" stroke="#8437E5"/>
</svg>
