<svg width="102" height="30" viewBox="0 0 102 30" fill="none" xmlns="http://www.w3.org/2000/svg">
<path d="M15.3 23.1C14.7 23.1 14.1 23.1 13.4 23.1C13 23.1 12.6 23.1 12.2 23.1C11.9 23.1 11.7 23 11.7 22.6C11.7 20.3 11.7 18 11.7 15.6C11.7 14.9 11.7 14.2 11.7 13.4C11.4 13.4 11.1 13.4 10.9 13.4C8.6 13.4 6.2 13.4 3.9 13.4C3.6 13.5 3.5 13.6 3.5 13.9C3.5 16.7 3.5 19.4 3.5 22.2C3.5 22.5 3.5 22.7 3.5 23C2.3 23 1.2 23 0 23C0 16.3 0 9.70001 0 3.00001C1.2 3.00001 2.3 3.00001 3.5 3.00001C3.5 5.50001 3.5 8.00001 3.5 10.6C6.3 10.6 9 10.6 11.7 10.6C11.7 10.4 11.7 10.2 11.7 10C11.7 7.80001 11.7 5.50001 11.7 3.30001C11.7 3.10001 11.7 2.90001 12 2.90001C13.1 2.90001 14.1 2.90001 15.2 2.90001C15.3 9.70001 15.3 16.4 15.3 23.1Z" fill="#8E8994"/>
<path d="M90.3 9.30001C90.1 10.1 89.9 10.9 89.8 11.8C89 11.7 88.3 11.6 87.7 11.5C87.9 12.2 88.1 13 88.2 13.7C88.6 16.6 86.2 18.5 84 18.9C82.8 19.1 81.6 19 80.5 18.6C80.1 18.5 80 18.6 79.8 18.8C79.3 19.4 79.4 20 80.1 20.2C81.4 20.6 82.7 20.8 84 21.1C85.2 21.4 86.3 21.6 87.5 21.9C90.3 22.8 90.1 25.6 89 27.1C88.3 28 87.2 28.5 86.1 28.8C83.7 29.4 81.3 29.5 79 28.9C78.6 28.8 78.2 28.6 77.8 28.5C76.5 27.8 76.1 26.6 76.7 25.3C77.1 24.4 77.8 23.8 78.6 23.3C78.8 23.2 78.9 23.1 79.2 23C78.1 22.4 77 21.9 77 20.4C77 19 78.1 18.4 79.2 17.8C78.8 17.4 78.4 17 78.1 16.6C76.8 14.6 77 10.7 80.7 9.60001C82.6 9.00001 84.4 9.10001 86.2 9.90001C86.4 10 86.8 10 87 9.90001C87.9 9.40001 89 9.20001 90.3 9.30001ZM82.8 27.5C83.6 27.5 84.7 27.4 85.6 26.9C86.2 26.6 86.6 26 86.5 25.3C86.4 24.7 85.9 24.5 85.4 24.3C83.8 23.9 82.2 23.6 80.5 23.3C80.3 23.3 80.1 23.4 80 23.5C79.8 23.8 79.6 24.1 79.5 24.4C79.2 25.2 79.2 25.9 79.8 26.5C80.7 27.2 81.6 27.5 82.8 27.5ZM85 14C85 13.9 85 13.9 85 14C84.9 13.6 84.9 13.1 84.8 12.7C84.6 11.7 83.9 11.1 82.8 11C81.7 10.9 80.8 11.5 80.5 12.5C80.3 13.3 80.3 14.1 80.5 14.9C80.9 16.4 81.8 17.1 83.3 16.9C83.9 16.8 84.4 16.5 84.6 16C84.7 15.3 84.8 14.6 85 14Z" fill="#8E8994"/>
<path d="M26 14.4C25.9 13.8 25.9 13.4 25.8 12.9C25.6 12 24.8 11.5 23.8 11.3C22.3 11.1 21.1 11.7 20.1 12.7C20 12.8 19.8 12.9 19.7 13.1C19.1 12.4 18.5 11.8 17.9 11.1C19 10.1 20.3 9.5 21.7 9.2C23.4 8.9 25 8.9 26.6 9.5C28.3 10.2 29.3 11.5 29.3 13.4C29.3 15.4 29.3 17.4 29.3 19.3C29.3 19.5 29.3 19.8 29.3 20C29.4 20.8 29.7 21.1 30.6 21C30.8 21 31 20.9 31.2 20.9C31.3 21.1 31.3 21.4 31.4 21.6C31.5 21.8 31.5 22.1 31.6 22.4C30.4 23.2 29.1 23.5 27.8 23.2C27 23 26.4 22.5 26.2 21.8C25.4 22.2 24.7 22.7 23.9 23C22.7 23.4 21.5 23.5 20.3 23.2C18.6 22.8 17.7 21.5 17.6 19.7C17.5 17.4 18.7 15.8 21 15C22.4 14.5 23.9 14.4 25.4 14.4C25.5 14.4 25.7 14.4 26 14.4ZM26 15.9C24.9 15.9 23.8 16.1 22.8 16.5C21.2 17.2 21 18.3 21.1 19.7C21.2 20.3 21.5 20.8 22.2 21C23.5 21.2 24.7 20.9 25.8 20.2C25.9 20.1 26 20 26 19.9C26 18.5 26 17.2 26 15.9Z" fill="#8E8994"/>
<path d="M65.9 23C64.8 23 63.7 23 62.5 23C62.5 18.4 62.5 13.8 62.5 9.20001C63.5 9.20001 64.5 9.20001 65.5 9.20001C65.6 9.60001 65.7 10 65.8 10.3C66.5 9.90001 67.3 9.50001 68 9.20001C70.1 8.40001 72.5 9.00001 73.8 10.6C74.5 11.4 74.9 12.3 74.9 13.3C74.9 16.3 74.9 19.2 74.9 22.2C74.9 22.9 74.9 22.9 74.1 22.9C73.3 22.9 72.4 22.9 71.5 22.9C71.5 22.7 71.5 22.5 71.5 22.4C71.5 19.8 71.5 17.1 71.5 14.5C71.5 14.1 71.5 13.6 71.4 13.2C71.1 12 70.2 11.3 68.8 11.5C67.9 11.6 67 11.9 66.2 12.1C65.8 12.2 65.7 12.4 65.7 12.8C65.7 16 65.7 19.2 65.7 22.3C65.9 22.6 65.9 22.8 65.9 23Z" fill="#8E8994"/>
<path d="M48.7 0.5C48.9 0.6 49 0.8 49.2 0.9C52.3 3.2 55.5 3.4 58.9 1.7C61.1 0.6 63.3 0 65.8 0C68.5 0 70.9 1 72.9 2.8C74.1 3.9 75.1 5.2 76 6.7C75.7999 6.6 75.6 6.5 75.5 6.4C73.5 5.1 71.2999 4.3 69 4.1C67.2 3.9 65.5 4.2 63.9 5C62 5.9 60 6.6 57.9 6.9C56.2 7.1 54.4999 7.1 52.7999 6.3C50.8999 5.4 49.7999 3.9 49.0999 2.1C48.8999 1.5 48.8 1 48.7 0.5Z" fill="#8E8994"/>
<path d="M32.1001 21.2C32.7001 20.5 33.3001 19.7 33.9001 19C34.2001 19.3 34.5001 19.6 34.8001 19.9C35.9001 20.8 37.2001 21.3 38.7001 21C39.4001 20.9 40.0001 20.4 40.1001 19.8C40.2001 19.1 40.0001 18.5 39.2001 18.1C39.0001 18 38.8001 17.9 38.6001 17.8C37.4001 17.3 36.2001 16.9 35.0001 16.4C33.7001 15.8 32.8001 14.9 32.5001 13.4C32.2001 11.9 32.8001 10.7 34.1001 9.9C35.0001 9.3 36.1001 9 37.1001 9C39.1001 8.9 41.1001 9.2 42.8001 10.5C42.8001 10.5 42.9001 10.6 43.0001 10.6C42.5001 11.4 42.0001 12.1 41.6001 12.8C40.9001 12.3 40.2001 11.8 39.5001 11.5C38.7001 11.1 37.8001 11.1 37.0001 11.4C36.4001 11.6 36.0001 12 36.0001 12.6C35.9001 13.3 36.3001 13.7 36.8001 13.9C37.6001 14.2 38.4001 14.5 39.2001 14.8C40.0001 15.1 40.9001 15.4 41.7001 15.8C43.2001 16.6 43.9001 18 43.7001 19.7C43.6001 21.2 42.6001 22.2 41.3001 22.7C38.4001 23.8 35.6001 23.6 33.0001 21.8C32.5001 21.7 32.3001 21.5 32.1001 21.2Z" fill="#8E8994"/>
<path d="M90.6001 21.2C91.2001 20.5 91.8001 19.7 92.4001 19C92.6001 19.2 92.8001 19.4 93.0001 19.6C93.9001 20.5 94.9001 21.1 96.2001 21.1C96.7001 21.1 97.3001 21 97.8001 20.8C98.9001 20.3 99.0001 18.9 98.0001 18.3C97.4001 17.9 96.8001 17.7 96.2001 17.5C95.0001 17 93.7001 16.7 92.6001 15.9C91.1001 14.8 90.5001 13 91.2001 11.5C91.7001 10.4 92.6001 9.7 93.7001 9.4C96.1001 8.7 98.5001 8.8 100.7 10.1C100.9 10.2 101.2 10.4 101.4 10.6C100.9 11.4 100.4 12.1 99.9001 12.9C99.6001 12.6 99.3001 12.3 99.0001 12.1C97.9001 11.2 96.7001 11 95.3001 11.4C94.7001 11.6 94.3001 12 94.2001 12.6C94.1001 13.3 94.5001 13.7 95.1001 13.9C96.3001 14.4 97.4001 14.7 98.6001 15.2C99.3001 15.5 99.9001 15.8 100.5 16.2C102.4 17.6 102.8 21.2 99.6001 22.6C98.2001 23.2 96.8001 23.3 95.3001 23.2C94.0001 23.1 92.7001 22.8 91.5001 22C91.3001 21.9 90.9001 21.5 90.6001 21.2Z" fill="#8E8994"/>
<path d="M46.3999 11.6C45.6999 11.6 45.0999 11.6 44.3999 11.6C44.3999 11.1 44.3999 10.6 44.3999 10.1C44.3999 10 44.5999 9.90001 44.6999 9.80001C45.1999 9.60001 45.5999 9.50001 46.0999 9.30001C46.3999 9.20001 46.4999 9.10001 46.5999 8.80001C46.7999 7.80001 47.0999 6.90001 47.2999 5.90001C47.3999 5.70001 47.3999 5.60001 47.6999 5.60001C48.3999 5.60001 49.0999 5.60001 49.7999 5.60001C49.7999 5.80001 49.7999 5.90001 49.7999 6.10001C49.7999 7.00001 49.7999 7.90001 49.7999 8.80001C49.7999 9.10001 49.8999 9.20001 50.1999 9.20001C51.1999 9.20001 52.1999 9.20001 53.1999 9.20001C53.0999 10 52.9999 10.8 52.8999 11.6C51.8999 11.6 50.8999 11.6 49.7999 11.6C49.7999 11.8 49.7999 11.9 49.7999 12.1C49.7999 14.2 49.7999 16.3 49.7999 18.3C49.7999 18.8 49.7999 19.3 49.8999 19.8C50.0999 20.5 50.3999 20.7 51.0999 20.6C51.7999 20.5 52.3999 20.4 53.0999 20.3C53.2999 20.8 53.5999 21.3 53.7999 21.8C52.4999 23.1 49.9999 23.6 48.2999 22.9C47.0999 22.4 46.5999 21.4 46.4999 20.2C46.3999 19.3 46.3999 18.4 46.3999 17.5C46.3999 15.7 46.3999 13.9 46.3999 12.1C46.3999 12 46.3999 11.9 46.3999 11.6Z" fill="#8E8994"/>
<path d="M55.8999 9.3C56.9999 9.3 58.0999 9.3 59.1999 9.3C59.1999 13.9 59.1999 18.4 59.1999 23C58.0999 23 56.9999 23 55.8999 23C55.8999 18.4 55.8999 13.9 55.8999 9.3Z" fill="#8E8994"/>
</svg>
