<svg width="1380" height="800" viewBox="0 0 1380 800" fill="none" xmlns="http://www.w3.org/2000/svg">
<path d="M1438.5 40C1436.5 149.167 1323.2 283.7 1166 330.5C969.5 389 838 483.5 745.5 556.5C642.5 637.787 206 876 44 519C-85.6 233.4 -97.6666 610 -87.5 834L369 868C365.5 699.833 468.3 398.2 907.5 537C1346.7 675.8 1430.5 564.5 1417.5 491.5M1409.5 -55.5C1418.83 70 1457 286 1291 420C1153.42 531.06 660.5 572.5 657.5 868M1330 -82C1341 150 1048.9 346.7 836.5 301.5C571 245 465 73.5 126 125.5C-145.2 167.1 -228.333 430.167 -236 556.5L-115.5 -178.5L378 -24C446.5 63 615.308 232.5 745.5 232.5C948 232.5 1026.17 34.6667 1085.5 -82" stroke="#8437E5"/>
</svg>
