<svg width="68" height="44" viewBox="0 0 68 44" fill="none" xmlns="http://www.w3.org/2000/svg">
<g clip-path="url(#clip0_220_13)">
<g filter="url(#filter0_d_220_13)">
<path d="M5.25454 14.3C0.721202 16.72 -0.10304 24.31 4.84241 26.29C5.4606 26.51 5.76969 25.3 5.4606 25.19C1.03029 23.32 2.36969 17.49 5.66666 15.84C11.4364 12.87 20.0909 14.96 19.1636 29.26C18.5454 39.27 12.2606 42.79 6.18181 40.7C1.13332 39.05 3.0909 33.22 7.62423 33.88C7.41817 35.75 7.10908 37.95 6.69696 39.71C6.59393 40.37 10.2 40.37 10.303 39.71C10.5091 37.95 10.7151 36.19 10.9212 34.54C11.3333 34.65 11.7454 34.87 12.1576 35.09C12.5697 35.31 12.9818 34.54 12.9818 34.43C12.2606 33.99 11.6424 33.66 11.0242 33.44C11.4364 28.16 11.0242 22.44 9.8909 16.72C9.68484 16.06 7.21211 16.83 7.21211 17.49C8.03635 22.88 8.13938 27.61 7.62423 32.89C1.44242 32.34 -0.3091 40.15 5.4606 42.02C11.8485 44.22 22.3576 40.37 23.1818 28.82C24.2121 14.74 11.2303 11.22 5.25454 14.3Z" fill="white"/>
<path d="M65.0122 31.57C63.9819 37.73 62.6425 40.81 60.6849 40.81C59.2425 40.81 58.5213 38.94 58.2122 34.1C58.4182 33.66 58.6243 33.11 58.8304 32.45C65.2182 11.66 68.1031 1.09998 63.4667 1.09998C59.1395 1.09998 54.4001 14.96 54.4001 27.61C54.4001 30.36 54.5031 32.67 54.8122 34.54C53.8849 38.39 52.5455 40.7 51.2061 40.7C49.4546 40.7 50.4849 33 50.897 29.59C51.0001 29.15 46.8788 28.93 46.7758 29.48C46.5698 30.8 46.4667 32.23 46.3637 34.43C45.9516 37.95 44.9213 41.25 43.5819 41.25C41.6243 41.25 41.1091 37.62 41.4182 34.43C41.8304 30.14 43.6849 26.84 45.9516 26.84C46.6728 26.84 47.0849 27.5 47.1879 27.72C47.9091 28.16 51.5152 28.6 51.5152 27.28C51.5152 26.73 49.5576 25.74 46.2607 25.74C41.9334 25.74 38.2243 28.82 37.4001 34.65C37.297 35.2 37.297 35.64 37.297 36.19C35.9576 39.38 33.2788 40.92 30.7031 40.92C29.0546 40.92 28.2304 39.49 27.8182 37.51L28.2304 37.29C31.8364 34.98 36.2667 32.12 36.2667 29.04C36.1637 26.4 34.2061 25.52 31.4243 25.52C27.3031 25.52 23.697 30.58 23.697 34.87C23.697 38.28 25.7576 42.13 30.0849 42.13C33.4849 42.13 36.0607 40.37 37.5031 37.51C38.1213 40.37 40.2849 42.57 43.1698 42.57C44.7152 42.57 45.7455 40.81 46.4667 38.39C46.7758 40.37 48.2182 41.91 50.2788 41.91C52.5455 41.91 53.9879 39.82 54.9152 36.52C55.7395 40.59 57.3879 42.35 59.6546 42.35C63.0546 42.35 64.6001 38.06 65.7334 31.57C66.0425 30.69 65.1152 30.69 65.0122 31.57ZM27.9213 37.07C27.8182 36.41 27.8182 35.86 27.8182 35.2C27.8182 31.35 28.6425 27.06 31.3213 27.06C32.3516 27.06 32.4546 28.38 32.4546 29.37C32.5576 32.01 31.0122 35.09 27.9213 37.07ZM58.1091 27.5C58.1091 17.6 60.4788 3.51998 62.5395 3.51998C65.1152 3.51998 64.394 12.1 58.2122 32.23C58.1091 30.8 58.1091 29.26 58.1091 27.5Z" fill="white"/>
</g>
</g>
<defs>
<filter id="filter0_d_220_13" x="-2.52112" y="1.09998" width="72.3173" height="49.5104" filterUnits="userSpaceOnUse" color-interpolation-filters="sRGB">
<feFlood flood-opacity="0" result="BackgroundImageFix"/>
<feColorMatrix in="SourceAlpha" type="matrix" values="0 0 0 0 0 0 0 0 0 0 0 0 0 0 0 0 0 0 127 0" result="hardAlpha"/>
<feOffset dy="4"/>
<feGaussianBlur stdDeviation="2"/>
<feComposite in2="hardAlpha" operator="out"/>
<feColorMatrix type="matrix" values="0 0 0 0 0 0 0 0 0 0 0 0 0 0 0 0 0 0 0.25 0"/>
<feBlend mode="normal" in2="BackgroundImageFix" result="effect1_dropShadow_220_13"/>
<feBlend mode="normal" in="SourceGraphic" in2="effect1_dropShadow_220_13" result="shape"/>
</filter>
<clipPath id="clip0_220_13">
<rect width="68" height="44" fill="white"/>
</clipPath>
</defs>
</svg>
