<svg width="49" height="42" viewBox="0 0 49 42" fill="none" xmlns="http://www.w3.org/2000/svg">
<path fill-rule="evenodd" clip-rule="evenodd" d="M43.2171 10.5H49V42H5.78286V31.5H0V0H43.2171V10.5ZM46.942 12.6H7.84082V39.9H46.942V12.6ZM27.3914 14.7C33.6394 14.7 38.7102 19.8744 38.7102 26.25C38.7102 32.6256 33.6394 37.8 27.3914 37.8C21.1435 37.8 16.0727 32.6256 16.0727 26.25C16.0727 19.8744 21.1435 14.7 27.3914 14.7ZM27.3914 16.8C32.5034 16.8 36.6522 21.0336 36.6522 26.25C36.6522 31.4664 32.5034 35.7 27.3914 35.7C22.2795 35.7 18.1306 31.4664 18.1306 26.25C18.1306 21.0336 22.2795 16.8 27.3914 16.8ZM28.4204 33.6H26.3625V31.9116C24.784 31.5756 23.3208 30.4647 23.3208 28.3332H25.424C25.424 29.5743 26.0949 30.1938 27.4367 30.1938C29.1181 30.1938 30.1676 28.2723 27.093 27.1719C25.5125 26.6049 23.6357 25.7523 23.6357 23.6166C23.6357 21.945 24.8149 20.8929 26.3625 20.5758V18.9H28.4204V20.5926C29.8692 20.9307 31.1225 22.0059 31.1225 23.9484H29.0275C29.0275 22.2936 27.5314 22.3188 27.3503 22.3188C26.2184 22.3188 25.7307 22.9299 25.7307 23.625C25.7307 24.1437 26.0064 24.6687 27.7001 25.2378C29.8733 25.9602 31.1225 27.0123 31.1225 28.9044C31.1225 30.2715 30.3487 31.6092 28.4204 31.9452V33.6ZM41.1592 10.5V2.1H2.05796V29.4H5.78286V10.5H41.1592Z" fill="#8E8994"/>
</svg>
