<svg width="68" height="27" viewBox="0 0 68 27" fill="none" xmlns="http://www.w3.org/2000/svg">
<path d="M56.3 18.9C56.3 20 56.3 21 56.3 22C54.1 22 51.9 22 49.7 22C49.7 21 49.7 20.1 49.7 19C49.6 19.1 49.6 19.2 49.6 19.3C49.3 20 48.9 20.8 48.3 21.4C47.3 22.4 46.1 22.7 44.9 22C44.3 21.6 43.7 21.1 43.2 20.7C43.1 20.6 43 20.5 42.8 20.3C42.8 21.2 42.7 22 43 22.8C43.3 23.5 43.7 24 44.4 24.1C44.4 25.1 44.4 26 44.4 27C41.8 27 39.2 27 36.7 27C36.7 26 36.7 25.1 36.7 24.1C37.8 23.7 38.3 23 38.3 21.8C38.3 20.1 38.3 18.5 38.4 16.8C38.4 16.8 38.4 16.7 38.4 16.6C38.3 16.8 38.3 16.8 38.3 16.9C37.9 18.2 37.2 19.3 36.2 20.3C33.9 22.6 30.7 22.6 28.4 20.3C26.9 18.9 26.2 17.1 25.9 15.2C25.9 15.1 25.9 15 25.8 14.9C25.8 14.9 25.8 14.8 25.8 14.7C23.5 14.7 21.2 14.7 18.8 14.7C18.7 15.9 18.7 17.1 19.6 18.1C20.3 18.9 21.2 18.8 21.7 17.9C21.9 17.6 21.9 17.3 22 17C22 16.9 22.1 16.8 22.2 16.8C23.5 16.8 24.8 16.8 26.1 16.8C26 17.1 26 17.4 25.9 17.6C25.2 20 23.6 21.4 21.2 21.8C18.8 22.2 16.8 21.3 15.5 19.2C14.6 17.9 14.2 16.5 14.1 15C14 14 14.1 13 14.1 12.1C14.1 12 14.1 11.9 14.1 11.8C13.1 12.7 11.9 13.1 10.6 13.2C9.6 13.3 8.6 13.2 7.7 13.2C7.6 13.2 7.4 13.2 7.2 13.2C7.2 13.3 7.2 13.5 7.2 13.6C7.2 14.6 7.2 15.5 7.2 16.5C7.2 17.6 7.8 18.4 9 18.5C9 18.5 9.1 18.5 9.2 18.5C9.2 19.7 9.2 20.8 9.2 22C6.2 22 3.1 22 0 22C0 20.8 0 19.6 0 18.3C0.2 18.3 0.4 18.2 0.6 18.2C1.4 18 1.8 17.4 1.8 16.7C1.8 13 1.8 9.3 1.8 5.6C1.8 4.7 1.2 3.8 0.3 3.7C0.2 3.7 0.1 3.7 0 3.6C0 2.4 0 1.3 0 0.1C0.1 0.1 0.3 0.1 0.4 0.1C3.7 0.1 7.1 2.23517e-08 10.4 0.1C13.3 0.2 15.8 2 16.1 5.5C16.1 6 16.1 6.4 16.1 7C17.9 5.3 19.9 4.8 22.1 5.5C24.3 6.2 25.6 7.9 26.1 10.2C26.4 9.6 26.6 9.1 26.9 8.5C27.6 7.4 28.4 6.4 29.6 5.8C31.7 4.7 34.2 5.1 36 6.8C36.3 7.1 36.6 7.5 37 7.8C37 7 37 6.3 37 5.5C39 5.5 40.9 5.5 42.8 5.5C42.8 5.9 42.8 6.3 42.8 6.7C42.8 6.7 42.9 6.7 42.9 6.8C43 6.7 43.1 6.6 43.2 6.4C43.9 5.7 44.8 5.2 45.8 5.2C46.6 5.2 47.3 5.5 48 6.1C49.1 7 49.7 8.2 50.1 9.6C50.2 10 50.3 10.4 50.4 10.8C50.4 10.9 50.5 11 50.5 11H50.6C50.6 10.9 50.6 10.8 50.6 10.8C50.6 8.7 50.6 6.6 50.6 4.4C50.6 3.6 50.1 3 49.3 2.8C49.2 2.8 49 2.8 48.9 2.7C48.9 1.9 48.9 1 48.9 0.2C48.9 0.1 49.1 0 49.2 0C50.8 0 52.5 0 54.1 0C54.5 0 54.8 0 55.2 0C55.2 2 55.2 3.9 55.2 5.9C55.2 7.8 55.2 9.8 55.2 11.7C55.3 11.4 55.3 11 55.4 10.7C55.9 8.7 56.9 7.1 58.6 5.9C61.2 4.2 64.3 4.9 66 7.4C66.9 8.7 67.3 10.2 67.4 11.7C67.5 12.6 67.5 13.6 67.6 14.6C66.2 14.6 64.9 14.6 63.6 14.6C62.3 14.6 61 14.6 59.7 14.6C59.6 15.8 59.6 17 60.4 18C61.1 18.9 62.1 18.8 62.7 17.8C62.8 17.6 62.9 17.3 63 17C63 16.8 63.1 16.8 63.3 16.8C64.5 16.8 65.8 16.8 67 16.8H67.1C67.2 18.7 65.4 20.9 63.2 21.6C60.7 22.6 58.3 21.7 56.3 18.9ZM30.3 14.2C30.4 14.7 30.4 15.5 30.6 16.4C30.8 17.1 31 17.7 31.3 18.3C31.7 19.1 32.4 19.1 32.9 18.3C33.1 18 33.3 17.6 33.4 17.2C34 15.3 34 13.3 33.6 11.4C33.4 10.6 33.2 9.9 32.7 9.3C32.2 8.7 31.7 8.7 31.3 9.3C31.1 9.6 30.9 10 30.7 10.4C30.5 11.5 30.4 12.6 30.3 14.2ZM42.8 13.4C42.8 13.4 42.9 13.4 42.8 13.4C42.9 14.6 42.9 15.9 42.9 17.1C42.9 17.6 43.1 17.9 43.5 18.2C43.7 18.3 43.8 18.4 44 18.5C44.5 18.7 44.8 18.6 45.1 18.2C45.3 17.8 45.6 17.4 45.7 17C46.1 15.5 46.1 14 46 12.5C46 11.6 45.8 10.6 45.4 9.8C44.9 8.6 44.2 8.4 43.1 9.1C42.9 9.2 42.8 9.3 42.8 9.5C42.8 10.8 42.8 12.1 42.8 13.4ZM7.2 9.4C8 9.4 8.7 9.4 9.4 9.1C10 8.8 10.3 8.4 10.3 7.7C10.3 7.1 10.3 6.4 10.3 5.8C10.3 5.2 10 4.7 9.4 4.4C8.7 4 8 4 7.2 4.1C7.2 5.8 7.2 7.6 7.2 9.4ZM59.8 12.4C60.9 12.4 62 12.4 63.1 12.4C63.1 12.1 63.1 11.9 63.1 11.6C63.1 11 63.1 10.4 62.8 9.8C62.5 9.2 62.1 8.8 61.4 8.8C60.7 8.8 60.4 9.3 60.1 9.9C59.7 10.7 59.8 11.5 59.8 12.4ZM18.6 12.2C19.8 12.2 20.9 12.2 22 12.2C21.9 11.5 22 10.9 21.8 10.3C21.7 9.9 21.5 9.5 21.2 9.2C20.6 8.5 19.7 8.5 19.1 9.3C18.9 9.6 18.8 9.9 18.7 10.2C18.7 10.8 18.7 11.5 18.6 12.2Z" fill="#8E8994"/>
</svg>
