<svg width="37" height="56" viewBox="0 0 37 56" fill="none" xmlns="http://www.w3.org/2000/svg">
<path fill-rule="evenodd" clip-rule="evenodd" d="M32.375 56H4.625C2.072 56 0 53.9093 0 51.3333V4.66667C0 2.09067 2.072 0 4.625 0H32.375C34.928 0 37 2.09067 37 4.66667V51.3333C37 53.9093 34.928 56 32.375 56ZM34.6875 44.1397H2.3125V51.3333C2.3125 52.6213 3.35081 53.6667 4.625 53.6667H32.375C33.6515 53.6667 34.6875 52.6213 34.6875 51.3333V44.1397ZM18.5 51.1397C17.2212 51.1397 16.1875 50.0943 16.1875 48.8063C16.1875 47.5183 17.2212 46.473 18.5 46.473C19.7765 46.473 20.8102 47.5183 20.8102 48.8063C20.8102 50.0943 19.7765 51.1397 18.5 51.1397ZM34.6875 11.473H2.3125V41.8063H34.6875V11.473ZM32.375 2.33333H4.625C3.35081 2.33333 2.3125 3.381 2.3125 4.66667V9.13967H34.6875V4.66667C34.6875 3.381 33.6515 2.33333 32.375 2.33333ZM21.9688 6.80633H15.0312C14.393 6.80633 13.875 6.28367 13.875 5.63967C13.875 4.99567 14.393 4.473 15.0312 4.473H21.9688C22.607 4.473 23.125 4.99567 23.125 5.63967C23.125 6.28367 22.607 6.80633 21.9688 6.80633Z" fill="#8E8994"/>
</svg>
