<svg width="1380" height="1000" viewBox="0 0 1380 1000" fill="none" xmlns="http://www.w3.org/2000/svg">
<path d="M-31 25.4945C-28.5885 157.141 108.021 319.378 297.562 375.816C534.489 446.362 693.043 560.322 804.573 648.354C928.763 746.38 1455.07 1033.65 1650.39 603.132C1806.66 258.72 1821.21 712.871 1808.95 982.999L1258.53 1024C1262.75 821.204 1138.8 457.457 609.244 624.839C79.6863 792.221 -21.3541 658.002 -5.67957 569.969M3.96631 -89.6713C-7.2872 61.6722 -53.3061 322.152 146.846 483.746C312.733 617.676 907.06 667.649 910.677 1024M99.822 -121.628C86.559 158.146 438.754 395.352 694.851 340.844C1014.97 272.709 1142.78 65.893 1551.52 128.601C1878.52 178.768 1978.76 496.006 1988 648.354L1842.71 -238L1247.68 -51.6847C1165.09 53.2308 961.339 214.528 791 262.5C459 356 343.04 80.6912 271.5 -60" stroke="#8437E5"/>
</svg>
